# AST/ASF file generated using VICON BodyLanguage
# -----------------------------------------------
:version 1.10
:name VICON
:units
  mass 1.0
  length 0.45
  angle deg
:documentation
   .ast/.asf automatically generated from VICON data using
   VICON BodyBuilder and BodyLanguage model FoxedUp or BRILLIANT.MOD
:root
   order TX TY TZ RX RY RZ
   axis XYZ
   position 0 0 0  
   orientation 0 0 0 
:bonedata
  begin
     id 1 
     name lhipjoint
     direction 0.646657 -0.683706 0.338203 
     length 2.4948 
     axis 0 0 0  XYZ
  end
  begin
     id 2 
     name lfemur
     direction 0.34202 -0.939693 0  
     length 6.79491  
     axis 0 0 20  XYZ
    dof rx ry rz
    limits (-160.0 20.0)
           (-70.0 70.0)
           (-60.0 70.0)
  end
  begin
     id 3 
     name ltibia
     direction 0.34202 -0.939693 0   
     length 7.56807   
     axis 0 0 20   XYZ
    dof rx
    limits (-10.0 170.0)
  end
  begin
     id 4 
     name lfoot
     direction 0.0679796 -0.186772 0.980048   
     length 2.53018   
     axis -90 7.62852e-016 20   XYZ
    dof rx rz
    limits (-45.0 90.0)
           (-70.0 20.0)
  end
  begin
     id 5 
     name ltoes
     direction 1.53625e-011 -4.21881e-011 1   
     length 1.26912   
     axis -90 7.62852e-016 20   XYZ
    dof rx
    limits (-90.0 20.0)
  end
  begin
     id 6 
     name rhipjoint
     direction -0.618868 -0.704065 0.348274   
     length 2.42265  
     axis 0 0 0  XYZ 
  end
  begin
     id 7 
     name rfemur
     direction -0.34202 -0.939693 0   
     length 6.73814   
     axis 0 0 -20   XYZ
    dof rx ry rz
    limits (-160.0 20.0)
           (-70.0 70.0)
           (-70.0 60.0)
  end
  begin
     id 8 
     name rtibia
     direction -0.34202 -0.939693 0   
     length 7.66799   
     axis 0 0 -20   XYZ
    dof rx
    limits (-10.0 170.0)
 end
 begin
     id 9 
     name rfoot
     direction -0.0727352 -0.199838 0.977125   
     length 2.57224  
     axis -90 -7.62852e-016 -20   XYZ
    dof rx rz
    limits (-45.0 90.0)
           (-20.0 70.0)
  end
  begin
     id 10 
     name rtoes
     direction -1.53501e-011 -4.21858e-011 1   
     length 1.28858   
     axis -90 -7.62852e-016 -20   XYZ
    dof rx
    limits (-90.0 20.0)
  end
  begin
     id 11 
     name lowerback
     direction -0.0172471 0.995767 -0.0902851   
     length 2.20206   
     axis 0 0 0   XYZ
    dof rx ry rz
    limits (-20.0 45.0)
           (-30.0 30.0)
           (-30.0 30.0)
  end
  begin
     id 12 
     name upperback
     direction -0.000110737 0.999714 0.0239043   
     length 2.19523   
     axis 0 0 0   XYZ
    dof rx ry rz
    limits (-20.0 45.0)
           (-30.0 30.0)
           (-30.0 30.0)
  end
  begin
     id 13 
     name thorax
     direction 0.00704869 0.997783 0.0661741   
     length 2.21977   
     axis 0 0 0   XYZ
    dof rx ry rz
    limits (-20.0 45.0)
           (-30.0 30.0)
           (-30.0 30.0)
  end
  begin
     id 14 
     name lowerneck
     direction -0.00407501 0.995527 0.0943846   
     length 1.83142   
     axis 0 0 0   XYZ
    dof rx ry rz
    limits (-20.0 45.0)
           (-30.0 30.0)
           (-30.0 30.0)
  end
  begin
     id 15 
     name upperneck
     direction 0.0640586 0.986486 -0.150807   
     length 1.84616   
     axis 0 0 0   XYZ
    dof rx ry rz
    limits (-20.0 45.0)
           (-30.0 30.0)
           (-30.0 30.0)
  end
  begin
     id 16
     name head
     direction 0.0188017 0.99791 -0.0618239  
     length 1.85932  
     axis 0 0 0   XYZ
    dof rx ry rz
    limits (-20.0 45.0)
           (-30.0 30.0)
           (-30.0 30.0)
  end
  begin
     id 17 
     name lclavicle
     direction 0.976074 0.206905 0.066852  
     length 3.81043  
     axis 0 0 0   XYZ
    dof ry rz
    limits (-20.0 10.0)
           (0.0 20.0)
  end
  begin
     id 18 
     name lhumerus
     direction 1 -4.48971e-011 1.86916e-027   
     length 5.37587   
     axis 180 -30 -90   XYZ
    dof rx ry rz
    limits (-60.0 90.0)
           (-90.0 90.0)
           (-90.0 90.0)
  end
  begin
     id 19
     name lradius
     direction 1 -4.48968e-011 1.69187e-027   
     length 3.35977   
     axis 180 -30 -90   XYZ
    dof rx
    limits (-10.0 170.0)
  end
  begin
     id 20
     name lwrist
     direction 1 -4.48968e-011 5.8978e-027   
     length 1.67988   
     axis -3.27506e-015 90 90   XYZ
    dof ry
    limits (-180.0 0.0)
 end
  begin
     id 21 
     name lhand
     direction 1 -4.49028e-011 1.18071e-026   
     length 0.561859   
     axis -7.52654e-015 90 90   XYZ
    dof rx rz
    limits (-90.0 90.0)
           (-45.0 45.0)
  end
  begin
     id 22 
     name lfingers
     direction 1 -4.48927e-011 2.35758e-026   
     length 0.452985   
     axis -1.50534e-014 90 90   XYZ
    dof rx
    limits (0.0 90.0)
  end
  begin
     id 23
     name lthumb
     direction 0.707107 -6.34898e-011 0.707107   
     length 0.650399   
     axis -90 45 5.69224e-014   XYZ
    dof rx rz
    limits (-45.0 45.0)
           (-45.0 45.0)
  end
  begin
     id 24 
     name rclavicle
     direction -0.988403 0.151789 0.00439714   
     length 3.6942  
     axis 0 0 0   XYZ 
    dof ry rz
    limits (-10.0 20.0)
           (-20.0 0.0)
  end
  begin
     id 25 
     name rhumerus
     direction -1 -4.48978e-011 1.62495e-027  
     length 5.22819   
     axis 180 30 90   XYZ
    dof rx ry rz
    limits (-90.0 60.0)
           (-90.0 90.0)
           (-90.0 90.0)
  end
  begin
     id 26 
     name rradius
     direction -1 -4.48961e-011 3.47796e-027   
     length 3.40764   
     axis 180 30 90   XYZ
    dof rx
    limits (-10.0 170.0)
  end
  begin
     id 27 
     name rwrist
     direction -1 -4.48949e-011 5.89602e-027   
     length 1.70382   
     axis -3.27506e-015 -90 -90   XYZ
    dof ry
    limits (-180.0 0.0)
  end
  begin
     id 28
     name rhand
     direction -1 -4.48977e-011 1.17973e-026   
     length 0.583255   
     axis -7.52654e-015 -90 -90   XYZ
    dof rx rz
    limits (-90.0 90.0)
           (-45.0 45.0)
  end
  begin
     id 29
     name rfingers
     direction -1 -4.49099e-011 2.36408e-026   
     length 0.470235   
     axis -1.50534e-014 -90 -90   XYZ
    dof rx
    limits (0.0 90.0)
  end
  begin
     id 30
     name rthumb
     direction -0.707107 -6.35011e-011 0.707107   
     length 0.675167   
     axis -90 -45 -5.69224e-014   XYZ
    dof rx rz
    limits (-45.0 45.0)
           (-45.0 45.0)
  end
:hierarchy
  begin
    root lhipjoint rhipjoint lowerback
    lhipjoint lfemur
    lfemur ltibia
    ltibia lfoot
    lfoot ltoes
    rhipjoint rfemur
    rfemur rtibia
    rtibia rfoot
    rfoot rtoes
    lowerback upperback
    upperback thorax
    thorax lowerneck lclavicle rclavicle
    lowerneck upperneck
    upperneck head
    lclavicle lhumerus
    lhumerus lradius
    lradius lwrist
    lwrist lhand lthumb
    lhand lfingers
    rclavicle rhumerus
    rhumerus rradius
    rradius rwrist
    rwrist rhand rthumb
    rhand rfingers
  end

#!OML:ASF G:\JayActor3\Patient Classification 1\Patient 1\Session 2\male.ASF
:FULLY-SPECIFIED
:DEGREES
328
root 47.0208 16.859 -5.92553 100.273 -84.9705 -99.9978
lowerback -0.459756 -1.35292 -4.41363
upperback -0.896791 -1.80719 0.209401
thorax -0.520613 -0.879295 2.68578
lowerneck -3.75583 -4.53695 -6.56397
upperneck 3.12432 -6.35026 11.8601
head 2.13581 -3.03211 4.42854
rclavicle 3.01159e-014 -1.59028e-015
rhumerus -32.4632 -1.36952 -82.6602
rradius 36.7041
rwrist -0.366968
rhand -18.471 0.77097
rfingers 7.12502
rthumb 7.81578 -29.0646
lclavicle 3.01159e-014 -1.59028e-015
lhumerus -26.182 -5.01694 87.3435
lradius 37.2428
lwrist 11.16
lhand -16.6164 19.8968
lfingers 7.12502
lthumb 9.60542 49.6578
rfemur -27.0714 -4.72501 19.5155
rtibia 47.2504
rfoot -14.5631 -0.0466492
rtoes 8.02261
lfemur 9.20379 3.05139 -18.7476
ltibia 9.92919
lfoot -13.1106 7.25979
ltoes 0.910567
329
root 46.9832 16.863 -5.93846 99.0512 -85.0623 -98.6563
lowerback -0.468253 -1.3545 -4.40919
upperback -0.92844 -1.8099 0.206126
thorax -0.54841 -0.879655 2.6802
lowerneck -3.73189 -4.61352 -6.63093
upperneck 3.11695 -6.44953 11.8601
head 2.14116 -3.08272 4.43556
rclavicle 8.05078e-015 7.95139e-016
rhumerus -32.4918 -1.39421 -82.5995
rradius 36.7114
rwrist -0.344656
rhand -18.5213 0.77544
rfingers 7.12502
rthumb 7.76716 -29.0619
lclavicle 8.05078e-015 7.95139e-016
lhumerus -26.1679 -5.02156 87.3206
lradius 37.2228
lwrist 11.1791
lhand -16.5998 19.8651
lfingers 7.12502
lthumb 9.62153 49.6254
rfemur -27.0535 -4.58167 19.5316
rtibia 46.4417
rfoot -14.8177 -0.256959
rtoes 8.06193
lfemur 9.3636 3.18111 -18.7316
ltibia 9.61628
lfoot -12.8874 7.05353
ltoes 0.814708
330
root 46.9453 16.8667 -5.95173 97.9217 -85.154 -97.4044
lowerback -0.478592 -1.34929 -4.39698
upperback -0.963705 -1.80362 0.200842
thorax -0.57989 -0.875452 2.66826
lowerneck -3.69671 -4.69647 -6.70411
upperneck 3.10388 -6.55748 11.8656
head 2.14426 -3.13809 4.44515
rclavicle 4.96962e-017 -1.19271e-014
rhumerus -32.5239 -1.43171 -82.5333
rradius 36.7225
rwrist -0.329495
rhand -18.5731 0.778569
rfingers 7.12502
rthumb 7.71723 -29.0606
lclavicle 4.96962e-017 -1.19271e-014
lhumerus -26.1654 -5.03189 87.2959
lradius 37.2008
lwrist 11.1861
lhand -16.5963 19.8372
lfingers 7.12502
lthumb 9.62485 49.5973
rfemur -27.0333 -4.4141 19.5363
rtibia 45.6421
rfoot -15.0921 -0.495902
rtoes 8.04408
lfemur 9.52509 3.32202 -18.7187
ltibia 9.29761
lfoot -12.6576 6.84701
ltoes 0.702235
331
root 46.9066 16.8702 -5.96548 96.7876 -85.2453 -96.1492
lowerback -0.486546 -1.34179 -4.37963
upperback -1.00217 -1.79449 0.197446
thorax -0.616304 -0.869706 2.6555
lowerneck -3.65634 -4.78316 -6.78462
upperneck 3.09175 -6.67045 11.8718
head 2.1476 -3.19614 4.45601
rclavicle -9.14409e-015 8.74653e-015
rhumerus -32.5616 -1.46739 -82.4608
rradius 36.742
rwrist -0.326201
rhand -18.6245 0.770353
rfingers 7.12502
rthumb 7.66763 -29.0706
lclavicle -9.14409e-015 8.74653e-015
lhumerus -26.1749 -5.03878 87.2701
lradius 37.1741
lwrist 11.1816
lhand -16.6003 19.8016
lfingers 7.12502
lthumb 9.62098 49.5619
rfemur -27.0004 -4.22735 19.5312
rtibia 44.8504
rfoot -15.3942 -0.761081
rtoes 7.98399
lfemur 9.69969 3.46577 -18.7054
ltibia 8.9634
lfoot -12.4198 6.64308
ltoes 0.557464
332
root 46.8669 16.8736 -5.97998 95.4862 -85.3361 -94.731
lowerback -0.494475 -1.33344 -4.35952
upperback -1.04138 -1.78424 0.195515
thorax -0.653619 -0.863397 2.64272
lowerneck -3.60131 -4.87542 -6.85983
upperneck 3.06777 -6.79046 11.8709
head 2.14536 -3.25843 4.46395
rclavicle 1.40392e-014 -7.95139e-015
rhumerus -32.6032 -1.51744 -82.3786
rradius 36.7648
rwrist -0.325797
rhand -18.6741 0.761398
rfingers 7.12502
rthumb 7.61972 -29.0813
lclavicle 1.40392e-014 -7.95139e-015
lhumerus -26.1979 -5.04651 87.2441
lradius 37.1472
lwrist 11.166
lhand -16.5955 19.7587
lfingers 7.12502
lthumb 9.62567 49.5188
rfemur -26.9458 -4.03039 19.5188
rtibia 44.0671
rfoot -15.7216 -1.055
rtoes 7.89336
lfemur 9.90074 3.59898 -18.6869
ltibia 8.59616
lfoot -12.1686 6.44412
ltoes 0.399198
333
root 46.8258 16.8771 -5.99549 93.8629 -85.4269 -92.9963
lowerback -0.503354 -1.33043 -4.34177
upperback -1.07923 -1.781 0.196085
thorax -0.688292 -0.860657 2.63375
lowerneck -3.54045 -4.96808 -6.93401
upperneck 3.04018 -6.91129 11.8722
head 2.1413 -3.32135 4.4725
rclavicle -3.62782e-015 -9.54166e-015
rhumerus -32.644 -1.57212 -82.2916
rradius 36.7892
rwrist -0.327465
rhand -18.7249 0.7464
rfingers 7.12502
rthumb 7.57065 -29.0981
lclavicle -3.62782e-015 -9.54166e-015
lhumerus -26.2303 -5.05095 87.2159
lradius 37.1202
lwrist 11.1498
lhand -16.6052 19.7128
lfingers 7.12502
lthumb 9.6163 49.4733
rfemur -26.8637 -3.82953 19.4991
rtibia 43.2935
rfoot -16.0773 -1.37608
rtoes 7.7891
lfemur 10.1409 3.70509 -18.6618
ltibia 8.17448
lfoot -11.8925 6.25613
ltoes 0.24309
334
root 46.783 16.8807 -6.01204 91.9348 -85.5252 -90.9667
lowerback -0.516983 -1.33351 -4.3385
upperback -1.10783 -1.78535 0.19846
thorax -0.709745 -0.862017 2.63445
lowerneck -3.48337 -5.05942 -7.00783
upperneck 3.0054 -7.02975 11.8752
head 2.13569 -3.38304 4.48164
rclavicle 3.41413e-014 1.59028e-014
rhumerus -32.6738 -1.62919 -82.1989
rradius 36.8152
rwrist -0.329171
rhand -18.7817 0.729767
rfingers 7.12502
rthumb 7.51582 -29.1167
lclavicle 3.41413e-014 1.59028e-014
lhumerus -26.2626 -5.04413 87.1848
lradius 37.0966
lwrist 11.137
lhand -16.6221 19.6899
lfingers 7.12502
lthumb 9.59994 49.4512
rfemur -26.7492 -3.62771 19.4616
rtibia 42.533
rfoot -16.4542 -1.70667
rtoes 7.71144
lfemur 10.4361 3.79412 -18.6396
ltibia 7.68271
lfoot -11.585 6.07538
ltoes 0.0955674
335
root 46.7385 16.8843 -6.02991 89.5566 -85.628 -88.4968
lowerback -0.532774 -1.3461 -4.35137
upperback -1.12897 -1.80203 0.202921
thorax -0.720827 -0.869738 2.64609
lowerneck -3.42388 -5.14877 -7.08023
upperneck 2.95914 -7.14496 11.8808
head 2.12612 -3.44336 4.49164
rclavicle 5.24295e-015 1.27222e-014
rhumerus -32.6988 -1.68041 -82.1044
rradius 36.8475
rwrist -0.333025
rhand -18.8418 0.702729
rfingers 7.12502
rthumb 7.45784 -29.1458
lclavicle 5.24295e-015 1.27222e-014
lhumerus -26.3012 -5.02794 87.1506
lradius 37.0841
lwrist 11.1389
lhand -16.6513 19.694
lfingers 7.12502
lthumb 9.57181 49.4565
rfemur -26.6024 -3.42669 19.4084
rtibia 41.7866
rfoot -16.8465 -2.04192
rtoes 7.68204
lfemur 10.7834 3.85387 -18.6183
ltibia 7.12254
lfoot -11.2469 5.90449
ltoes -0.0412128
336
root 46.6928 16.8876 -6.04837 87.006 -85.7325 -85.8598
lowerback -0.554475 -1.36054 -4.37021
upperback -1.14523 -1.82074 0.207056
thorax -0.723244 -0.878687 2.6605
lowerneck -3.36376 -5.23699 -7.14546
upperneck 2.90901 -7.2584 11.8802
head 2.11474 -3.50288 4.49874
rclavicle 2.02263e-014 0
rhumerus -32.7214 -1.72459 -82.0094
rradius 36.8867
rwrist -0.341745
rhand -18.9024 0.677948
rfingers 7.12502
rthumb 7.39936 -29.1727
lclavicle 2.02263e-014 0
lhumerus -26.3441 -5.00132 87.1119
lradius 37.0793
lwrist 11.155
lhand -16.6933 19.7251
lfingers 7.12502
lthumb 9.53128 49.4896
rfemur -26.4373 -3.21833 19.3383
rtibia 41.0551
rfoot -17.2218 -2.35647
rtoes 7.70357
lfemur 11.169 3.9088 -18.6046
ltibia 6.51011
lfoot -10.8879 5.74208
ltoes -0.143529
337
root 46.6463 16.8907 -6.06771 84.2362 -85.8229 -83.0027
lowerback -0.579592 -1.37897 -4.38392
upperback -1.15905 -1.84446 0.216749
thorax -0.720799 -0.89029 2.67758
lowerneck -3.31426 -5.32419 -7.21402
upperneck 2.86172 -7.37038 11.8839
head 2.10618 -3.56123 4.50744
rclavicle 1.0635e-014 7.15625e-015
rhumerus -32.7397 -1.7526 -81.9154
rradius 36.9345
rwrist -0.361809
rhand -18.9643 0.649253
rfingers 7.12502
rthumb 7.33961 -29.2034
lclavicle 1.0635e-014 7.15625e-015
lhumerus -26.3891 -4.95901 87.0684
lradius 37.0815
lwrist 11.1813
lhand -16.7345 19.7868
lfingers 7.12502
lthumb 9.49152 49.553
rfemur -26.2612 -2.99584 19.2702
rtibia 40.3347
rfoot -17.5599 -2.6572
rtoes 7.72177
lfemur 11.561 3.95472 -18.5815
ltibia 5.88288
lfoot -10.5178 5.58816
ltoes -0.260145
338
root 46.5995 16.8934 -6.08764 81.5755 -85.9005 -80.2437
lowerback -0.612658 -1.39177 -4.38574
upperback -1.17919 -1.86046 0.229008
thorax -0.721256 -0.897964 2.69056
lowerneck -3.26002 -5.4139 -7.28583
upperneck 2.81002 -7.48595 11.8936
head 2.09634 -3.62154 4.51853
rclavicle 3.35449e-015 -1.74931e-014
rhumerus -32.7618 -1.7749 -81.822
rradius 36.9867
rwrist -0.388105
rhand -19.024 0.631245
rfingers 7.12502
rthumb 7.28203 -29.2234
lclavicle 3.35449e-015 -1.74931e-014
lhumerus -26.4422 -4.90714 87.02
lradius 37.0857
lwrist 11.208
lhand -16.7713 19.8421
lfingers 7.12502
lthumb 9.45599 49.6099
rfemur -26.0932 -2.7435 19.205
rtibia 39.6244
rfoot -17.8216 -2.93232
rtoes 7.70261
lfemur 11.9237 4.01485 -18.5523
ltibia 5.28612
lfoot -10.1557 5.43608
ltoes -0.37759
339
root 46.5524 16.8958 -6.10845 78.9545 -85.9595 -77.5152
lowerback -0.647527 -1.40171 -4.37416
upperback -1.20575 -1.87273 0.246988
thorax -0.727814 -0.903633 2.70199
lowerneck -3.20837 -5.50748 -7.36432
upperneck 2.76104 -7.60687 11.9072
head 2.08876 -3.68434 4.53153
rclavicle -6.08778e-015 -7.95139e-016
rhumerus -32.7853 -1.78757 -81.7302
rradius 37.0425
rwrist -0.421315
rhand -19.0918 0.605439
rfingers 7.12502
rthumb 7.21654 -29.2515
lclavicle -6.08778e-015 -7.95139e-016
lhumerus -26.5035 -4.84942 86.967
lradius 37.0902
lwrist 11.2336
lhand -16.8067 19.8881
lfingers 7.12502
lthumb 9.42188 49.6575
rfemur -25.9283 -2.46387 19.1507
rtibia 38.9241
rfoot -17.9873 -3.18223
rtoes 7.59167
lfemur 12.2376 4.08115 -18.5082
ltibia 4.75896
lfoot -9.816 5.2804
ltoes -0.51114
340
root 46.5047 16.8979 -6.13004 76.3228 -86.0084 -74.7709
lowerback -0.682133 -1.40821 -4.35492
upperback -1.23757 -1.88059 0.265682
thorax -0.740476 -0.906959 2.70997
lowerneck -3.15166 -5.60762 -7.44696
upperneck 2.70574 -7.73656 11.9254
head 2.07982 -3.75174 4.54637
rclavicle 4.22417e-016 -2.38542e-015
rhumerus -32.8106 -1.8045 -81.6383
rradius 37.0971
rwrist -0.448787
rhand -19.1679 0.586822
rfingers 7.12502
rthumb 7.14312 -29.2726
lclavicle 4.22417e-016 -2.38542e-015
lhumerus -26.5731 -4.7923 86.909
lradius 37.0949
lwrist 11.2516
lhand -16.8194 19.9158
lfingers 7.12502
lthumb 9.40957 49.6858
rfemur -25.765 -2.1742 19.0995
rtibia 38.2423
rfoot -18.04 -3.39969
rtoes 7.34694
lfemur 12.5135 4.15026 -18.4586
ltibia 4.29145
lfoot -9.49614 5.12435
ltoes -0.668738
341
root 46.4564 16.8997 -6.15262 73.5548 -86.0491 -71.888
lowerback -0.716271 -1.41472 -4.33531
upperback -1.27284 -1.88864 0.28422
thorax -0.756939 -0.910262 2.71765
lowerneck -3.08741 -5.7125 -7.53553
upperneck 2.63821 -7.87237 11.9523
head 2.06739 -3.82257 4.56491
rclavicle 1.89591e-014 9.54166e-015
rhumerus -32.8391 -1.82146 -81.5489
rradius 37.1539
rwrist -0.467578
rhand -19.2592 0.563444
rfingers 7.12502
rthumb 7.05497 -29.299
lclavicle 1.89591e-014 9.54166e-015
lhumerus -26.6498 -4.74053 86.8463
lradius 37.0999
lwrist 11.2686
lhand -16.8274 19.9297
lfingers 7.12502
lthumb 9.40188 49.7
rfemur -25.6014 -1.88836 19.0498
rtibia 37.5899
rfoot -18.026 -3.5632
rtoes 7.22659
lfemur 12.7774 4.2131 -18.4059
ltibia 3.84187
lfoot -9.17395 4.969
ltoes -0.843692
342
root 46.4065 16.901 -6.17614 70.4786 -86.0938 -68.7056
lowerback -0.749406 -1.42341 -4.33131
upperback -1.30442 -1.89958 0.297012
thorax -0.769675 -0.915052 2.72811
lowerneck -3.01838 -5.82184 -7.62258
upperneck 2.55788 -8.01372 11.9816
head 2.05116 -3.89648 4.58392
rclavicle -1.73937e-016 7.95139e-015
rhumerus -32.8678 -1.84274 -81.462
rradius 37.2118
rwrist -0.468372
rhand -19.3689 0.535307
rfingers 7.12502
rthumb 6.94901 -29.3306
lclavicle -1.73937e-016 7.95139e-015
lhumerus -26.7309 -4.69721 86.7781
lradius 37.1088
lwrist 11.2868
lhand -16.8341 19.9454
lfingers 7.12502
lthumb 9.39541 49.716
rfemur -25.4249 -1.6296 18.9853
rtibia 36.9829
rfoot -17.9693 -3.66759
rtoes 7.27525
lfemur 13.0867 4.26257 -18.3666
ltibia 3.33302
lfoot -8.81633 4.8228
ltoes -1.05674
